<svg aria-hidden="true" style="position: absolute; width: 0; height: 0; overflow: hidden;" version="1.1" xmlns="http://www.w3.org/2000/svg" xmlns:xlink="http://www.w3.org/1999/xlink">
<defs>
<symbol id="icon-mark" viewBox="0 0 32 32">
<path fill="#f90" style="fill: var(--color1, #f90)" d="M9.333 0.444h13.333c4.909 0 8.889 3.98 8.889 8.889v13.333c0 4.909-3.98 8.889-8.889 8.889h-13.333c-4.909 0-8.889-3.98-8.889-8.889v-13.333c0-4.909 3.98-8.889 8.889-8.889z"></path>
<path fill="#fff" style="fill: var(--color2, #fff)" d="M24.335 11.324c-0.297-0.284-0.779-0.284-1.077 0l-5.614 5.356c-1.962 1.872-5.049 1.872-7.011 0-0.297-0.284-0.779-0.284-1.077 0s-0.297 0.743 0 1.027l4.044 3.858c0.297 0.284 0.779 0.283 1.077 0l9.658-9.214c0.297-0.284 0.297-0.743 0-1.027z"></path>
</symbol>
<symbol id="icon-clock" viewBox="0 0 32 32">
<path fill="#4dadf7" style="fill: var(--color3, #4dadf7)" d="M9.6 0h12.8c5.302 0 9.6 4.298 9.6 9.6v12.8c0 5.302-4.298 9.6-9.6 9.6h-12.8c-5.302 0-9.6-4.298-9.6-9.6v-12.8c0-5.302 4.298-9.6 9.6-9.6z"></path>
<path fill="#fff" style="fill: var(--color2, #fff)" d="M19.566 11.794c0 0.994-0.204 1.874-0.611 2.64-0.404 0.762-0.91 1.345-1.52 1.749 0.61 0.404 1.116 0.989 1.52 1.754 0.408 0.762 0.611 1.64 0.611 2.634h0.549c0.053 0 0.097 0.017 0.131 0.051s0.051 0.078 0.051 0.131v0.366c0 0.053-0.017 0.097-0.051 0.131s-0.078 0.051-0.131 0.051h-8.411c-0.053 0-0.097-0.017-0.131-0.051s-0.051-0.078-0.051-0.131v-0.366c0-0.053 0.017-0.097 0.051-0.131s0.078-0.051 0.131-0.051h0.549c0-0.994 0.202-1.872 0.606-2.634 0.408-0.766 0.916-1.35 1.526-1.754-0.61-0.404-1.118-0.987-1.526-1.749-0.404-0.766-0.606-1.646-0.606-2.64h-0.549c-0.053 0-0.097-0.017-0.131-0.051s-0.051-0.078-0.051-0.131v-0.366c0-0.053 0.017-0.097 0.051-0.131s0.078-0.051 0.131-0.051h8.411c0.053 0 0.097 0.017 0.131 0.051s0.051 0.078 0.051 0.131v0.366c0 0.053-0.017 0.097-0.051 0.131s-0.078 0.051-0.131 0.051h-0.549zM18.834 11.794h-5.851c0 0.785 0.162 1.516 0.486 2.194h4.88c0.324-0.678 0.486-1.409 0.486-2.194zM18.509 18.743c-0.206-0.537-0.484-0.996-0.834-1.377-0.347-0.385-0.716-0.657-1.109-0.817h-1.314c-0.392 0.16-0.764 0.432-1.114 0.817-0.347 0.381-0.623 0.84-0.829 1.377h5.2z"></path>
</symbol>
<symbol id="icon-heart" viewBox="0 0 32 32">
<path fill="#f03e3d" style="fill: var(--color4, #f03e3d)" d="M9.6 0h12.8c5.302 0 9.6 4.298 9.6 9.6v12.8c0 5.302-4.298 9.6-9.6 9.6h-12.8c-5.302 0-9.6-4.298-9.6-9.6v-12.8c0-5.302 4.298-9.6 9.6-9.6z"></path>
<path fill="#fff" style="fill: var(--color2, #fff)" d="M16.251 20.469c-0.069 0.069-0.152 0.103-0.251 0.103s-0.183-0.034-0.251-0.103l-3.566-3.44c-0.038-0.030-0.091-0.080-0.16-0.149-0.065-0.069-0.17-0.192-0.314-0.371-0.145-0.183-0.274-0.369-0.389-0.56s-0.217-0.421-0.309-0.691c-0.088-0.27-0.131-0.533-0.131-0.789 0-0.838 0.242-1.493 0.726-1.966s1.152-0.709 2.006-0.709c0.236 0 0.476 0.042 0.72 0.126 0.248 0.080 0.476 0.19 0.686 0.331 0.213 0.137 0.396 0.267 0.549 0.389s0.297 0.251 0.434 0.389c0.137-0.137 0.282-0.267 0.434-0.389s0.333-0.251 0.543-0.389c0.213-0.141 0.442-0.251 0.686-0.331 0.248-0.084 0.49-0.126 0.726-0.126 0.853 0 1.522 0.236 2.006 0.709s0.726 1.128 0.726 1.966c0 0.842-0.436 1.699-1.309 2.571l-3.56 3.429z"></path>
</symbol>
<symbol id="icon-snake" viewBox="0 0 32 32">
<path fill="#fab005" style="fill: var(--color5, #fab005)" d="M9.6 0h12.8c5.302 0 9.6 4.298 9.6 9.6v12.8c0 5.302-4.298 9.6-9.6 9.6h-12.8c-5.302 0-9.6-4.298-9.6-9.6v-12.8c0-5.302 4.298-9.6 9.6-9.6z"></path>
<path fill="#fff" style="fill: var(--color2, #fff)" d="M16.309 15.131v-0.674c0-0.16-0.057-0.297-0.171-0.411s-0.251-0.171-0.411-0.171-0.297 0.057-0.411 0.171c-0.114 0.114-0.171 0.251-0.171 0.411v3.497c0 0.667-0.24 1.236-0.72 1.709s-1.057 0.709-1.731 0.709c-0.678 0-1.257-0.238-1.737-0.714-0.476-0.48-0.714-1.059-0.714-1.737v-1.52h1.874v1.497c0 0.164 0.057 0.303 0.171 0.417 0.114 0.11 0.251 0.166 0.411 0.166s0.297-0.055 0.411-0.166c0.114-0.114 0.171-0.253 0.171-0.417v-3.543c0-0.651 0.24-1.208 0.72-1.669 0.484-0.461 1.059-0.691 1.726-0.691 0.67 0 1.246 0.232 1.726 0.697s0.72 1.025 0.72 1.68v0.777l-1.114 0.331-0.749-0.349zM19.337 16.4h1.874v1.52c0 0.678-0.24 1.257-0.72 1.737-0.476 0.476-1.053 0.714-1.731 0.714-0.674 0-1.251-0.236-1.731-0.709-0.48-0.476-0.72-1.050-0.72-1.72v-1.531l0.749 0.349 1.114-0.331v1.543c0 0.16 0.057 0.297 0.171 0.411 0.114 0.11 0.251 0.166 0.411 0.166s0.297-0.055 0.411-0.166c0.114-0.114 0.171-0.251 0.171-0.411v-1.571z"></path>
</symbol>
<symbol id="icon-arrow" viewBox="0 0 32 32">
<path fill="#7752be" style="fill: var(--color6, #7752be)" d="M10.483 0h11.034c4.571 0 8.276 3.705 8.276 8.276v11.034c0 4.571-3.705 8.276-8.276 8.276h-11.034c-4.571 0-8.276-3.705-8.276-8.276v-11.034c0-4.571 3.705-8.276 8.276-8.276z"></path>
<path fill="#fff" style="fill: var(--color2, #fff)" d="M18.823 14.675c0.102 0.099 0.125 0.212 0.069 0.34-0.056 0.131-0.153 0.197-0.291 0.197h-1.882l0.99 2.345c0.033 0.082 0.033 0.163 0 0.241s-0.089 0.136-0.168 0.172l-0.872 0.369c-0.082 0.033-0.163 0.033-0.241 0s-0.136-0.089-0.172-0.168l-0.941-2.227-1.537 1.537c-0.062 0.062-0.136 0.094-0.222 0.094-0.039 0-0.079-0.008-0.118-0.025-0.131-0.056-0.197-0.153-0.197-0.291v-7.409c0-0.138 0.066-0.235 0.197-0.291 0.039-0.016 0.079-0.025 0.118-0.025 0.089 0 0.163 0.031 0.222 0.094l5.044 5.044z"></path>
</symbol>
</defs>
</svg>
